<?xml version="1.0" encoding="UTF-8" standalone="no"?>
<!-- Created with Inkscape (http://www.inkscape.org/) -->

<svg
   width="210mm"
   height="297mm"
   viewBox="0 0 210 297"
   version="1.1"
   id="svg5"
   xml:space="preserve"
   inkscape:version="1.2.2 (732a01da63, 2022-12-09)"
   sodipodi:docname="投幣.svg"
   xmlns:inkscape="http://www.inkscape.org/namespaces/inkscape"
   xmlns:sodipodi="http://sodipodi.sourceforge.net/DTD/sodipodi-0.dtd"
   xmlns="http://www.w3.org/2000/svg"
   xmlns:svg="http://www.w3.org/2000/svg"><sodipodi:namedview
     id="namedview7"
     pagecolor="#ffffff"
     bordercolor="#000000"
     borderopacity="0.25"
     inkscape:showpageshadow="2"
     inkscape:pageopacity="0.0"
     inkscape:pagecheckerboard="0"
     inkscape:deskcolor="#d1d1d1"
     inkscape:document-units="mm"
     showgrid="false"
     inkscape:zoom="0.3535534"
     inkscape:cx="404.46507"
     inkscape:cy="585.4844"
     inkscape:window-width="1024"
     inkscape:window-height="705"
     inkscape:window-x="-8"
     inkscape:window-y="-8"
     inkscape:window-maximized="1"
     inkscape:current-layer="layer1" /><defs
     id="defs2" /><g
     inkscape:label="圖層 1"
     inkscape:groupmode="layer"
     id="layer1"><path
       id="front_outsideCutPath"
       style="font-size:12px;fill:none;fill-rule:evenodd;stroke:#000000;stroke-width:0.1;stroke-linecap:round"
       d="M 21.806938 199.90718 L 21.806938 204.05731 L 24.806755 204.05731 L 24.806755 210.39698 L 21.806938 210.39698 L 21.806938 216.73716 L 24.806755 216.73716 L 24.806755 223.07734 L 21.806938 223.07734 L 21.806938 229.417 L 24.806755 229.417 L 24.806755 235.75719 L 21.806938 235.75719 L 21.806938 239.90732 L 30.596582 239.90732 L 30.596582 236.90699 L 36.936764 236.90699 L 36.936764 239.90732 L 43.276945 239.90732 L 43.276945 236.90699 L 49.61661 236.90699 L 49.61661 239.90732 L 55.956791 239.90732 L 55.956791 236.90699 L 62.296973 236.90699 L 62.296973 239.90732 L 68.636637 239.90732 L 68.636637 236.90699 L 74.976819 236.90699 L 74.976819 239.90732 L 81.317 239.90732 L 81.317 236.90699 L 87.656665 236.90699 L 87.656665 239.90732 L 93.996847 239.90732 L 93.996847 236.90699 L 100.33703 236.90699 L 100.33703 239.90732 L 106.67669 239.90732 L 106.67669 236.90699 L 113.01687 236.90699 L 113.01687 239.90732 L 119.35706 239.90732 L 121.80704 239.90732 L 121.80704 235.75719 L 118.8067 235.75719 L 118.8067 229.417 L 121.80704 229.417 L 121.80704 223.07734 L 118.8067 223.07734 L 118.8067 216.73716 L 121.80704 216.73716 L 121.80704 210.39698 L 118.8067 210.39698 L 118.8067 204.05731 L 121.80704 204.05731 L 121.80704 199.90718 L 113.01687 199.90718 L 113.01687 202.90699 L 106.67669 202.90699 L 106.67669 199.90718 L 100.33703 199.90718 L 100.33703 202.90699 L 93.996847 202.90699 L 93.996847 199.90718 L 87.656665 199.90718 L 87.656665 202.90699 L 81.317 202.90699 L 81.317 199.90718 L 74.976819 199.90718 L 74.976819 202.90699 L 68.636637 202.90699 L 68.636637 199.90718 L 62.296973 199.90718 L 62.296973 202.90699 L 55.956791 202.90699 L 55.956791 199.90718 L 49.61661 199.90718 L 49.61661 202.90699 L 43.276945 202.90699 L 43.276945 199.90718 L 36.936764 199.90718 L 36.936764 202.90699 L 30.596582 202.90699 L 30.596582 199.90718 L 24.256917 199.90718 L 21.806938 199.90718 z M 69.076921 206.10732 L 74.976819 206.10732 L 74.976819 220.00724 L 69.076921 220.00724 L 69.076921 206.10732 z " /><path
       d="m 127.80684,199.90715 v 4.15 h -3 v 6.34 h 3 v 6.34 h -3 v 6.34 h 3 v 6.34 h -3 v 6.34 h 3 v 4.15 h 0.33 v -3 h 6.34 v 3 h 0.33 v -4.15 h 3 v -6.34 h -3 v -6.34 h 3 v -6.34 h -3 v -6.34 h 3 v -6.34 h -3 v -4.15 h -0.33 v 3 h -6.34 v -3 z"
       id="left_outsideCutPath"
       stroke="#FF0000"
       stroke-width="0.1"
       style="font-size:12px;fill:none;fill-rule:evenodd;stroke:#000000;stroke-width:0.1;stroke-linecap:round"
       vector-effect="non-scaling-stroke" /><path
       d="m 24.80684,142.14462 v 0.33 h -3 v 6.34 h 3 v 0.33 h 5.79 v 3 h 6.34 v -3 h 6.34 v 3 h 6.34 v -3 h 6.34 v 3 h 6.34 v -3 h 6.34 v 3 h 6.34 v -3 h 6.34 v 3 h 6.34 v -3 h 6.34 v 3 h 6.34 v -3 h 6.34 v 3 h 6.34 v -3 h 5.79 v -0.33 h 3 v -6.34 h -3 v -0.33 h -5.79 v -3 h -6.34 v 3 h -6.34 v -3 h -6.34 v 3 h -6.34 v -3 h -6.34 v 3 h -6.34 v -3 h -6.34 v 3 h -6.34 v -3 h -6.34 v 3 h -6.34 v -3 h -6.34 v 3 h -6.34 v -3 h -6.34 v 3 z"
       id="top_outsideCutPath"
       stroke="#FF0000"
       stroke-width="0.1"
       style="font-size:12px;fill:none;fill-rule:evenodd;stroke:#000000;stroke-width:0.1;stroke-linecap:round"
       vector-effect="non-scaling-stroke" /><path
       d="m 21.80684,156.90715 v 4.15 h 3 v 6.34 h -3 v 6.34 h 3 v 6.34 h -3 v 6.34 h 3 v 6.34 h -3 v 4.15 h 8.79 v -3 h 6.34 v 3 h 6.34 v -3 h 6.34 v 3 h 6.34 v -3 h 6.34 v 3 h 6.34 v -3 h 6.34 v 3 h 6.34 v -3 h 6.34 v 3 h 6.34 v -3 h 6.34 v 3 h 6.34 v -3 h 6.34 v 3 h 6.34 2.45 v -4.15 h -3 v -6.34 h 3 v -6.34 h -3 v -6.34 h 3 v -6.34 h -3 v -6.34 h 3 v -4.15 h -8.79 v 3 h -6.34 v -3 h -6.34 v 3 h -6.34 v -3 h -6.34 v 3 h -6.34 v -3 h -6.34 v 3 h -6.34 v -3 h -6.34 v 3 h -6.34 v -3 h -6.34 v 3 h -6.34 v -3 h -6.34 v 3 h -6.34 v -3 h -6.34 z"
       id="back_outsideCutPath"
       stroke="#FF0000"
       stroke-width="0.1"
       style="font-size:12px;fill:none;fill-rule:evenodd;stroke:#000000;stroke-width:0.1;stroke-linecap:round"
       vector-effect="non-scaling-stroke" /><path
       d="m 127.80684,156.90715 v 4.15 h -3 v 6.34 h 3 v 6.34 h -3 v 6.34 h 3 v 6.34 h -3 v 6.34 h 3 v 4.15 h 0.33 v -3 h 6.34 v 3 h 0.33 v -4.15 h 3 v -6.34 h -3 v -6.34 h 3 v -6.34 h -3 v -6.34 h 3 v -6.34 h -3 v -4.15 h -0.33 v 3 h -6.34 v -3 z"
       id="right_outsideCutPath"
       stroke="#FF0000"
       stroke-width="0.1"
       style="font-size:12px;fill:none;fill-rule:evenodd;stroke:#000000;stroke-width:0.1;stroke-linecap:round"
       vector-effect="non-scaling-stroke" /><path
       d="m 24.80684,126.14462 v 0.33 h -3 v 6.34 h 3 v 0.33 h 5.79 v 3 h 6.34 v -3 h 6.34 v 3 h 6.34 v -3 h 6.34 v 3 h 6.34 v -3 h 6.34 v 3 h 6.34 v -3 h 6.34 v 3 h 6.34 v -3 h 6.34 v 3 h 6.34 v -3 h 6.34 v 3 h 6.34 v -3 h 5.79 v -0.33 h 3 v -6.34 h -3 v -0.33 h -5.79 v -3 h -6.34 v 3 h -6.34 v -3 h -6.34 v 3 h -6.34 v -3 h -6.34 v 3 h -6.34 v -3 h -6.34 v 3 h -6.34 v -3 h -6.34 v 3 h -6.34 v -3 h -6.34 v 3 h -6.34 v -3 h -6.34 v 3 z"
       id="bottom_outsideCutPath"
       stroke="#FF0000"
       stroke-width="0.1"
       style="font-size:12px;fill:none;fill-rule:evenodd;stroke:#000000;stroke-width:0.1;stroke-linecap:round"
       vector-effect="non-scaling-stroke" /></g></svg>
