<?xml version="1.0" encoding="UTF-8" standalone="no"?>
<!-- Created with Inkscape (http://www.inkscape.org/) -->

<svg
   width="297mm"
   height="210mm"
   viewBox="0 0 297 210"
   version="1.1"
   id="svg5"
   xml:space="preserve"
   inkscape:version="1.2.2 (732a01da63, 2022-12-09)"
   sodipodi:docname="投幣機外框.svg"
   xmlns:inkscape="http://www.inkscape.org/namespaces/inkscape"
   xmlns:sodipodi="http://sodipodi.sourceforge.net/DTD/sodipodi-0.dtd"
   xmlns="http://www.w3.org/2000/svg"
   xmlns:svg="http://www.w3.org/2000/svg"><sodipodi:namedview
     id="namedview7"
     pagecolor="#ffffff"
     bordercolor="#000000"
     borderopacity="0.25"
     inkscape:showpageshadow="2"
     inkscape:pageopacity="0.0"
     inkscape:pagecheckerboard="0"
     inkscape:deskcolor="#d1d1d1"
     inkscape:document-units="mm"
     showgrid="false"
     inkscape:zoom="1.0305625"
     inkscape:cx="489.05331"
     inkscape:cy="199.89084"
     inkscape:window-width="1024"
     inkscape:window-height="705"
     inkscape:window-x="-8"
     inkscape:window-y="-8"
     inkscape:window-maximized="1"
     inkscape:current-layer="layer1"
     showguides="true" /><defs
     id="defs2" /><g
     inkscape:label="圖層 1"
     inkscape:groupmode="layer"
     id="layer1"><path
       id="back_outsideCutPath"
       style="font-size:12px;fill:none;fill-rule:evenodd;stroke:#000000;stroke-width:0.0999995;stroke-linecap:round"
       d="m 58.054857,51.101273 -17.202568,9.931693 -2.22157,1.268657 17.492472,29.968196 2.22157,-1.268656 h 99.609949 v -39.89989 z m 9.200988,0.665076 h 7.900293 v 3.000333 h -7.900293 z m 25.223267,0 h 7.899778 v 2.900081 h -7.899778 z m 25.222758,0 h 7.90029 v 2.900081 h -7.90029 z m 25.22327,0 h 7.89977 v 2.900081 h -7.89977 z m -87.063431,1.956986 1.429887,2.476851 -3.537252,2.042253 -1.429887,-2.476851 z m 50.177821,2.847371 h 4.89996 v 15.899805 h -4.89996 z m -59.801523,2.708879 1.429887,2.476851 -3.537252,2.042253 -1.429887,-2.476335 z m 21.017838,27.94093 h 7.900293 v 3.000334 h -7.900293 z m 25.223267,0 h 7.899778 v 2.900082 h -7.899778 z m 25.222758,0 h 7.90029 v 2.900082 h -7.90029 z m 25.22327,0 h 7.89977 v 2.900082 h -7.89977 z" /><path
       id="back_outsideCutPath-2"
       style="font-size:12px;fill:none;fill-rule:evenodd;stroke:#000000;stroke-width:0.0999995;stroke-linecap:round"
       d="m 59.385345,8.9314711 -17.202568,9.9316929 -2.22157,1.268657 17.492472,29.968196 2.22157,-1.268656 H 159.28518 V 8.9314711 Z m 9.200988,0.665076 h 7.900293 V 12.59688 h -7.900293 z m 25.223267,0 h 7.89977 V 12.496628 H 93.8096 Z m 25.22274,0 h 7.90029 v 2.9000809 h -7.90029 z m 25.22327,0 h 7.89977 v 2.9000809 h -7.89977 z m -87.063413,1.9569859 1.429887,2.476851 -3.537252,2.042253 -1.429887,-2.476851 z m -9.623702,5.55625 1.429887,2.476851 -3.537252,2.042253 -1.429887,-2.476335 z m 21.017838,27.94093 h 7.900293 v 3.000334 h -7.900293 z m 25.223267,0 h 7.89977 v 2.900082 H 93.8096 Z m 25.22274,0 h 7.90029 v 2.900082 h -7.90029 z m 25.22327,0 h 7.89977 v 2.900082 h -7.89977 z" /><path
       id="rect17330"
       style="fill:none;stroke:#000000;stroke-width:0.1;stroke-dasharray:none"
       d="m 55.863253,110.68748 v 3.00034 h -9.200988 v 13.89992 h 9.200988 v 2.75849 h 7.900293 v -2.75849 H 81.08652 v 2.5616 h 7.899776 v -2.5616 h 17.322944 v 2.5616 h 7.90029 v -2.5616 h 17.32298 v 2.5616 h 7.89977 v -2.5616 h 7.1298 v -13.89992 h -7.1298 v -3.00034 h -7.89977 v 3.00034 h -17.32298 v -3.00034 h -7.90029 v 3.00034 H 88.986296 v -3.00034 H 81.08652 v 3.00034 H 63.763546 v -3.00034 z" /><path
       id="rect17330-68"
       style="fill:none;stroke:#000000;stroke-width:0.1;stroke-dasharray:none"
       d="m 65.668343,92.514755 v 3.000322 h -9.200989 v 13.899893 h 9.200989 v 2.75849 h 7.900293 v -2.75849 H 90.89161 v 2.5616 h 7.899776 v -2.5616 h 17.322974 v 2.5616 h 7.90029 v -2.5616 h 17.32298 v 2.5616 h 7.89977 v -2.5616 h 7.1298 V 95.515077 h -7.1298 v -3.000322 h -7.89977 v 3.000322 h -17.32298 v -3.000322 h -7.90029 v 3.000322 H 98.791386 V 92.514755 H 90.89161 v 3.000322 H 73.568636 v -3.000322 z m 64.749017,4.87926 h 4.89996 v 9.900155 h -4.89996 v -0.99994 H 77.517749 v -7.899758 h 52.899611 z" /><path
       id="rect17330-6"
       style="fill:none;stroke:#000000;stroke-width:0.1;stroke-dasharray:none"
       d="m 163.02993,60.518768 v 2.94969 h -2.05724 v 13.899921 h 2.05724 v 2.80862 h 4.0845 v -2.80862 h 7.028 v 2.80862 h 4.0845 v -2.80862 h 2.64584 V 63.468458 h -2.64584 v -2.94969 h -4.0845 v 2.94969 h -7.028 v -2.94969 z" /><path
       style="fill:none;stroke:#000000;stroke-width:0.0999998;stroke-dasharray:none"
       inkscape:label="Triangle"
       d="m 163.96155,89.073056 29.58173,17.079024 9.93154,-17.201934 z"
       id="path30197" /><path
       id="rect32611"
       style="fill:none;stroke:#000000;stroke-width:0.0999996;stroke-dasharray:none"
       d="M 160.9726 8.9312378 L 160.9726 58.831034 L 220.87282 58.831034 L 220.87282 8.9312378 L 160.9726 8.9312378 z M 196.12446 12.202873 L 211.36849 24.99434 L 185.72148 55.559399 L 170.47693 42.767932 L 196.12446 12.202873 z M 165.97798 13.303064 A 1.45 1.45 0 0 1 167.42802 14.753105 A 1.45 1.45 0 0 1 165.97798 16.203145 A 1.45 1.45 0 0 1 164.52794 14.753105 A 1.45 1.45 0 0 1 165.97798 13.303064 z M 216.24778 13.303064 A 1.45 1.45 0 0 1 217.69782 14.753105 A 1.45 1.45 0 0 1 216.24778 16.203145 A 1.45 1.45 0 0 1 214.79774 14.753105 A 1.45 1.45 0 0 1 216.24778 13.303064 z M 165.97798 51.932231 A 1.45 1.45 0 0 1 167.42802 53.382271 A 1.45 1.45 0 0 1 165.97798 54.832312 A 1.45 1.45 0 0 1 164.52794 53.382271 A 1.45 1.45 0 0 1 165.97798 51.932231 z M 216.24778 51.932231 A 1.45 1.45 0 0 1 217.69782 53.382271 A 1.45 1.45 0 0 1 216.24778 54.832312 A 1.45 1.45 0 0 1 214.79774 53.382271 A 1.45 1.45 0 0 1 216.24778 51.932231 z " /><text
       xml:space="preserve"
       style="font-size:22.5778px;fill:none;stroke:#ff0000;stroke-width:0.1"
       x="74.710411"
       y="38.541908"
       id="text966"><tspan
         sodipodi:role="line"
         id="tspan964"
         style="font-size:22.5778px;stroke:#ff0000;stroke-width:0.1"
         x="74.710411"
         y="38.541908">投幣機</tspan></text></g></svg>
