999
"DXF R12 Output" (www.mydxf.blogspot.com)
 0 
SECTION
 2 
HEADER
 9 
$ACADVER
 1 
AC1009
 9 
$EXTMIN
 10 
 0 
 20 
 0 
 9 
$EXTMAX
 10 
 8.5 
 20 
 11 
 0 
ENDSEC
 0 
SECTION
 2 
ENTITIES
0
LINE
8
喇뒨쏛 1
10
58.054900
20
158.899000
11
40.852300
21
148.967310
0
LINE
8
喇뒨쏛 1
10
40.852300
20
148.967310
11
38.630730
21
147.698650
0
LINE
8
喇뒨쏛 1
10
38.630730
20
147.698650
11
56.123230
21
117.730450
0
LINE
8
喇뒨쏛 1
10
56.123230
20
117.730450
11
58.344800
21
118.999110
0
LINE
8
喇뒨쏛 1
10
58.344800
20
118.999110
11
157.955000
21
118.999000
0
LINE
8
喇뒨쏛 1
10
157.955000
20
118.999000
11
157.955000
21
158.899000
0
LINE
8
喇뒨쏛 1
10
157.955000
20
158.899000
11
58.054900
21
158.899000
0
LINE
8
喇뒨쏛 1
10
67.255890
20
158.233924
11
75.156100
21
158.234000
0
LINE
8
喇뒨쏛 1
10
75.156100
20
158.234000
11
75.156100
21
155.233000
0
LINE
8
喇뒨쏛 1
10
75.156100
20
155.233000
11
67.255800
21
155.233000
0
LINE
8
喇뒨쏛 1
10
67.255800
20
155.233000
11
67.255890
21
158.233924
0
LINE
8
喇뒨쏛 1
10
92.479190
20
158.233924
11
100.379000
21
158.234000
0
LINE
8
喇뒨쏛 1
10
100.379000
20
158.234000
11
100.379000
21
155.334000
0
LINE
8
喇뒨쏛 1
10
100.379000
20
155.334000
11
92.479100
21
155.334000
0
LINE
8
喇뒨쏛 1
10
92.479100
20
155.334000
11
92.479190
21
158.233924
0
LINE
8
喇뒨쏛 1
10
117.701990
20
158.233924
11
125.602000
21
158.234000
0
LINE
8
喇뒨쏛 1
10
125.602000
20
158.234000
11
125.602000
21
155.334000
0
LINE
8
喇뒨쏛 1
10
125.602000
20
155.334000
11
117.702000
21
155.334000
0
LINE
8
喇뒨쏛 1
10
117.702000
20
155.334000
11
117.701990
21
158.233924
0
LINE
8
喇뒨쏛 1
10
142.925290
20
158.233924
11
150.825000
21
158.234000
0
LINE
8
喇뒨쏛 1
10
150.825000
20
158.234000
11
150.825000
21
155.334000
0
LINE
8
喇뒨쏛 1
10
150.825000
20
155.334000
11
142.925000
21
155.334000
0
LINE
8
喇뒨쏛 1
10
142.925000
20
155.334000
11
142.925290
21
158.233924
0
LINE
8
喇뒨쏛 1
10
55.861890
20
156.276934
11
57.291780
21
153.800084
0
LINE
8
喇뒨쏛 1
10
57.291780
20
153.800084
11
53.754530
21
151.757834
0
LINE
8
喇뒨쏛 1
10
53.754530
20
151.757834
11
52.324640
21
154.234684
0
LINE
8
喇뒨쏛 1
10
52.324640
20
154.234684
11
55.861890
21
156.276934
0
LINE
8
喇뒨쏛 1
10
106.039690
20
153.429564
11
110.939000
21
153.429000
0
LINE
8
喇뒨쏛 1
10
110.939000
20
153.429000
11
110.939000
21
137.529000
0
LINE
8
喇뒨쏛 1
10
110.939000
20
137.529000
11
106.040000
21
137.529000
0
LINE
8
喇뒨쏛 1
10
106.040000
20
137.529000
11
106.039690
21
153.429564
0
LINE
8
喇뒨쏛 1
10
46.238190
20
150.720684
11
47.668080
21
148.243834
0
LINE
8
喇뒨쏛 1
10
47.668080
20
148.243834
11
44.130830
21
146.201584
0
LINE
8
喇뒨쏛 1
10
44.130830
20
146.201584
11
42.700940
21
148.677924
0
LINE
8
喇뒨쏛 1
10
42.700940
20
148.677924
11
46.238190
21
150.720684
0
LINE
8
喇뒨쏛 1
10
67.255990
20
122.779784
11
75.156100
21
122.779000
0
LINE
8
喇뒨쏛 1
10
75.156100
20
122.779000
11
75.156100
21
119.779000
0
LINE
8
喇뒨쏛 1
10
75.156100
20
119.779000
11
67.255800
21
119.779000
0
LINE
8
喇뒨쏛 1
10
67.255800
20
119.779000
11
67.255990
21
122.779784
0
LINE
8
喇뒨쏛 1
10
92.479290
20
122.779784
11
100.379000
21
122.779000
0
LINE
8
喇뒨쏛 1
10
100.379000
20
122.779000
11
100.379000
21
119.879000
0
LINE
8
喇뒨쏛 1
10
100.379000
20
119.879000
11
92.479100
21
119.879000
0
LINE
8
喇뒨쏛 1
10
92.479100
20
119.879000
11
92.479290
21
122.779784
0
LINE
8
喇뒨쏛 1
10
117.702090
20
122.779784
11
125.602000
21
122.779000
0
LINE
8
喇뒨쏛 1
10
125.602000
20
122.779000
11
125.602000
21
119.879000
0
LINE
8
喇뒨쏛 1
10
125.602000
20
119.879000
11
117.702000
21
119.879000
0
LINE
8
喇뒨쏛 1
10
117.702000
20
119.879000
11
117.702090
21
122.779784
0
LINE
8
喇뒨쏛 1
10
142.925390
20
122.779784
11
150.825000
21
122.779000
0
LINE
8
喇뒨쏛 1
10
150.825000
20
122.779000
11
150.825000
21
119.879000
0
LINE
8
喇뒨쏛 1
10
150.825000
20
119.879000
11
142.925000
21
119.879000
0
LINE
8
喇뒨쏛 1
10
142.925000
20
119.879000
11
142.925390
21
122.779784
0
LINE
8
喇뒨쏛 1
10
59.385300
20
201.069000
11
42.182700
21
191.137310
0
LINE
8
喇뒨쏛 1
10
42.182700
20
191.137310
11
39.961130
21
189.868650
0
LINE
8
喇뒨쏛 1
10
39.961130
20
189.868650
11
57.453630
21
159.900450
0
LINE
8
喇뒨쏛 1
10
57.453630
20
159.900450
11
59.675200
21
161.169110
0
LINE
8
喇뒨쏛 1
10
59.675200
20
161.169110
11
159.285000
21
161.169000
0
LINE
8
喇뒨쏛 1
10
159.285000
20
161.169000
11
159.285000
21
201.069000
0
LINE
8
喇뒨쏛 1
10
159.285000
20
201.069000
11
59.385300
21
201.069000
0
LINE
8
喇뒨쏛 1
10
68.586290
20
200.403924
11
76.486600
21
200.403000
0
LINE
8
喇뒨쏛 1
10
76.486600
20
200.403000
11
76.486600
21
197.403000
0
LINE
8
喇뒨쏛 1
10
76.486600
20
197.403000
11
68.586300
21
197.403000
0
LINE
8
喇뒨쏛 1
10
68.586300
20
197.403000
11
68.586290
21
200.403924
0
LINE
8
喇뒨쏛 1
10
93.809590
20
200.403924
11
101.709000
21
200.403000
0
LINE
8
喇뒨쏛 1
10
101.709000
20
200.403000
11
101.709000
21
197.503000
0
LINE
8
喇뒨쏛 1
10
101.709000
20
197.503000
11
93.809600
21
197.503000
0
LINE
8
喇뒨쏛 1
10
93.809600
20
197.503000
11
93.809590
21
200.403924
0
LINE
8
喇뒨쏛 1
10
119.032290
20
200.403924
11
126.933000
21
200.403000
0
LINE
8
喇뒨쏛 1
10
126.933000
20
200.403000
11
126.933000
21
197.503000
0
LINE
8
喇뒨쏛 1
10
126.933000
20
197.503000
11
119.032000
21
197.503000
0
LINE
8
喇뒨쏛 1
10
119.032000
20
197.503000
11
119.032290
21
200.403924
0
LINE
8
喇뒨쏛 1
10
144.255590
20
200.403924
11
152.155000
21
200.403000
0
LINE
8
喇뒨쏛 1
10
152.155000
20
200.403000
11
152.155000
21
197.503000
0
LINE
8
喇뒨쏛 1
10
152.155000
20
197.503000
11
144.256000
21
197.503000
0
LINE
8
喇뒨쏛 1
10
144.256000
20
197.503000
11
144.255590
21
200.403924
0
LINE
8
喇뒨쏛 1
10
57.192190
20
198.446934
11
58.622080
21
195.970084
0
LINE
8
喇뒨쏛 1
10
58.622080
20
195.970084
11
55.084830
21
193.927834
0
LINE
8
喇뒨쏛 1
10
55.084830
20
193.927834
11
53.654940
21
196.404684
0
LINE
8
喇뒨쏛 1
10
53.654940
20
196.404684
11
57.192190
21
198.446934
0
LINE
8
喇뒨쏛 1
10
47.568490
20
192.890684
11
48.998380
21
190.413834
0
LINE
8
喇뒨쏛 1
10
48.998380
20
190.413834
11
45.461130
21
188.371584
0
LINE
8
喇뒨쏛 1
10
45.461130
20
188.371584
11
44.031240
21
190.847914
0
LINE
8
喇뒨쏛 1
10
44.031240
20
190.847914
11
47.568490
21
192.890684
0
LINE
8
喇뒨쏛 1
10
68.586290
20
164.949784
11
76.486600
21
164.949000
0
LINE
8
喇뒨쏛 1
10
76.486600
20
164.949000
11
76.486600
21
161.949000
0
LINE
8
喇뒨쏛 1
10
76.486600
20
161.949000
11
68.586300
21
161.949000
0
LINE
8
喇뒨쏛 1
10
68.586300
20
161.949000
11
68.586290
21
164.949784
0
LINE
8
喇뒨쏛 1
10
93.809590
20
164.949784
11
101.709000
21
164.949000
0
LINE
8
喇뒨쏛 1
10
101.709000
20
164.949000
11
101.709000
21
162.049000
0
LINE
8
喇뒨쏛 1
10
101.709000
20
162.049000
11
93.809600
21
162.049000
0
LINE
8
喇뒨쏛 1
10
93.809600
20
162.049000
11
93.809590
21
164.949784
0
LINE
8
喇뒨쏛 1
10
119.032290
20
164.949784
11
126.933000
21
164.949000
0
LINE
8
喇뒨쏛 1
10
126.933000
20
164.949000
11
126.933000
21
162.049000
0
LINE
8
喇뒨쏛 1
10
126.933000
20
162.049000
11
119.032000
21
162.049000
0
LINE
8
喇뒨쏛 1
10
119.032000
20
162.049000
11
119.032290
21
164.949784
0
LINE
8
喇뒨쏛 1
10
144.255590
20
164.949784
11
152.155000
21
164.949000
0
LINE
8
喇뒨쏛 1
10
152.155000
20
164.949000
11
152.155000
21
162.049000
0
LINE
8
喇뒨쏛 1
10
152.155000
20
162.049000
11
144.256000
21
162.049000
0
LINE
8
喇뒨쏛 1
10
144.256000
20
162.049000
11
144.255590
21
164.949784
0
LINE
8
喇뒨쏛 1
10
55.863300
20
99.312500
11
55.863300
21
96.312200
0
LINE
8
喇뒨쏛 1
10
55.863300
20
96.312200
11
46.662300
21
96.312200
0
LINE
8
喇뒨쏛 1
10
46.662300
20
96.312200
11
46.662300
21
82.412300
0
LINE
8
喇뒨쏛 1
10
46.662300
20
82.412300
11
55.863300
21
82.412300
0
LINE
8
喇뒨쏛 1
10
55.863300
20
82.412300
11
55.863300
21
79.653800
0
LINE
8
喇뒨쏛 1
10
55.863300
20
79.653800
11
63.763500
21
79.653800
0
LINE
8
喇뒨쏛 1
10
63.763500
20
79.653800
11
63.763500
21
82.412300
0
LINE
8
喇뒨쏛 1
10
63.763500
20
82.412300
11
81.086500
21
82.412300
0
LINE
8
喇뒨쏛 1
10
81.086500
20
82.412300
11
81.086500
21
79.850700
0
LINE
8
喇뒨쏛 1
10
81.086500
20
79.850700
11
88.986300
21
79.850700
0
LINE
8
喇뒨쏛 1
10
88.986300
20
79.850700
11
88.986300
21
82.412300
0
LINE
8
喇뒨쏛 1
10
88.986300
20
82.412300
11
106.309000
21
82.412300
0
LINE
8
喇뒨쏛 1
10
106.309000
20
82.412300
11
106.309000
21
79.850700
0
LINE
8
喇뒨쏛 1
10
106.309000
20
79.850700
11
114.210000
21
79.850700
0
LINE
8
喇뒨쏛 1
10
114.210000
20
79.850700
11
114.210000
21
82.412300
0
LINE
8
喇뒨쏛 1
10
114.210000
20
82.412300
11
131.533000
21
82.412300
0
LINE
8
喇뒨쏛 1
10
131.533000
20
82.412300
11
131.533000
21
79.850700
0
LINE
8
喇뒨쏛 1
10
131.533000
20
79.850700
11
139.432000
21
79.850700
0
LINE
8
喇뒨쏛 1
10
139.432000
20
79.850700
11
139.432000
21
82.412300
0
LINE
8
喇뒨쏛 1
10
139.432000
20
82.412300
11
146.562000
21
82.412300
0
LINE
8
喇뒨쏛 1
10
146.562000
20
82.412300
11
146.562000
21
96.312200
0
LINE
8
喇뒨쏛 1
10
146.562000
20
96.312200
11
139.432000
21
96.312200
0
LINE
8
喇뒨쏛 1
10
139.432000
20
96.312200
11
139.432000
21
99.312500
0
LINE
8
喇뒨쏛 1
10
139.432000
20
99.312500
11
131.533000
21
99.312500
0
LINE
8
喇뒨쏛 1
10
131.533000
20
99.312500
11
131.533000
21
96.312200
0
LINE
8
喇뒨쏛 1
10
131.533000
20
96.312200
11
114.210000
21
96.312200
0
LINE
8
喇뒨쏛 1
10
114.210000
20
96.312200
11
114.210000
21
99.312500
0
LINE
8
喇뒨쏛 1
10
114.210000
20
99.312500
11
106.309000
21
99.312500
0
LINE
8
喇뒨쏛 1
10
106.309000
20
99.312500
11
106.309000
21
96.312200
0
LINE
8
喇뒨쏛 1
10
106.309000
20
96.312200
11
88.986300
21
96.312200
0
LINE
8
喇뒨쏛 1
10
88.986300
20
96.312200
11
88.986300
21
99.312500
0
LINE
8
喇뒨쏛 1
10
88.986300
20
99.312500
11
81.086500
21
99.312500
0
LINE
8
喇뒨쏛 1
10
81.086500
20
99.312500
11
81.086500
21
96.312200
0
LINE
8
喇뒨쏛 1
10
81.086500
20
96.312200
11
63.763500
21
96.312200
0
LINE
8
喇뒨쏛 1
10
63.763500
20
96.312200
11
63.763500
21
99.312500
0
LINE
8
喇뒨쏛 1
10
63.763500
20
99.312500
11
55.863300
21
99.312500
0
LINE
8
喇뒨쏛 1
10
65.668300
20
117.485000
11
65.668300
21
114.485000
0
LINE
8
喇뒨쏛 1
10
65.668300
20
114.485000
11
56.467400
21
114.485000
0
LINE
8
喇뒨쏛 1
10
56.467400
20
114.485000
11
56.467400
21
100.585000
0
LINE
8
喇뒨쏛 1
10
56.467400
20
100.585000
11
65.668300
21
100.585000
0
LINE
8
喇뒨쏛 1
10
65.668300
20
100.585000
11
65.668300
21
97.826500
0
LINE
8
喇뒨쏛 1
10
65.668300
20
97.826500
11
73.568600
21
97.826500
0
LINE
8
喇뒨쏛 1
10
73.568600
20
97.826500
11
73.568600
21
100.585000
0
LINE
8
喇뒨쏛 1
10
73.568600
20
100.585000
11
90.891600
21
100.585000
0
LINE
8
喇뒨쏛 1
10
90.891600
20
100.585000
11
90.891600
21
98.023400
0
LINE
8
喇뒨쏛 1
10
90.891600
20
98.023400
11
98.791400
21
98.023400
0
LINE
8
喇뒨쏛 1
10
98.791400
20
98.023400
11
98.791400
21
100.585000
0
LINE
8
喇뒨쏛 1
10
98.791400
20
100.585000
11
116.114000
21
100.585000
0
LINE
8
喇뒨쏛 1
10
116.114000
20
100.585000
11
116.114000
21
98.023400
0
LINE
8
喇뒨쏛 1
10
116.114000
20
98.023400
11
124.015000
21
98.023400
0
LINE
8
喇뒨쏛 1
10
124.015000
20
98.023400
11
124.015000
21
100.585000
0
LINE
8
喇뒨쏛 1
10
124.015000
20
100.585000
11
141.338000
21
100.585000
0
LINE
8
喇뒨쏛 1
10
141.338000
20
100.585000
11
141.338000
21
98.023400
0
LINE
8
喇뒨쏛 1
10
141.338000
20
98.023400
11
149.237000
21
98.023400
0
LINE
8
喇뒨쏛 1
10
149.237000
20
98.023400
11
149.237000
21
100.585000
0
LINE
8
喇뒨쏛 1
10
149.237000
20
100.585000
11
156.367000
21
100.585000
0
LINE
8
喇뒨쏛 1
10
156.367000
20
100.585000
11
156.367000
21
114.485000
0
LINE
8
喇뒨쏛 1
10
156.367000
20
114.485000
11
149.237000
21
114.485000
0
LINE
8
喇뒨쏛 1
10
149.237000
20
114.485000
11
149.237000
21
117.485000
0
LINE
8
喇뒨쏛 1
10
149.237000
20
117.485000
11
141.338000
21
117.485000
0
LINE
8
喇뒨쏛 1
10
141.338000
20
117.485000
11
141.338000
21
114.485000
0
LINE
8
喇뒨쏛 1
10
141.338000
20
114.485000
11
124.015000
21
114.485000
0
LINE
8
喇뒨쏛 1
10
124.015000
20
114.485000
11
124.015000
21
117.485000
0
LINE
8
喇뒨쏛 1
10
124.015000
20
117.485000
11
116.114000
21
117.485000
0
LINE
8
喇뒨쏛 1
10
116.114000
20
117.485000
11
116.114000
21
114.485000
0
LINE
8
喇뒨쏛 1
10
116.114000
20
114.485000
11
98.791400
21
114.485000
0
LINE
8
喇뒨쏛 1
10
98.791400
20
114.485000
11
98.791400
21
117.485000
0
LINE
8
喇뒨쏛 1
10
98.791400
20
117.485000
11
90.891600
21
117.485000
0
LINE
8
喇뒨쏛 1
10
90.891600
20
117.485000
11
90.891600
21
114.485000
0
LINE
8
喇뒨쏛 1
10
90.891600
20
114.485000
11
73.568600
21
114.485000
0
LINE
8
喇뒨쏛 1
10
73.568600
20
114.485000
11
73.568600
21
117.485000
0
LINE
8
喇뒨쏛 1
10
73.568600
20
117.485000
11
65.668300
21
117.485000
0
LINE
8
喇뒨쏛 1
10
130.417300
20
112.605740
11
135.317000
21
112.606000
0
LINE
8
喇뒨쏛 1
10
135.317000
20
112.606000
11
135.317000
21
102.706000
0
LINE
8
喇뒨쏛 1
10
135.317000
20
102.706000
11
130.417000
21
102.706000
0
LINE
8
喇뒨쏛 1
10
130.417000
20
102.706000
11
130.417000
21
103.706000
0
LINE
8
喇뒨쏛 1
10
130.417000
20
103.706000
11
77.517700
21
103.706000
0
LINE
8
喇뒨쏛 1
10
77.517700
20
103.706000
11
77.517700
21
111.606000
0
LINE
8
喇뒨쏛 1
10
77.517700
20
111.606000
11
130.417000
21
111.606000
0
LINE
8
喇뒨쏛 1
10
130.417000
20
111.606000
11
130.417300
21
112.605740
0
LINE
8
喇뒨쏛 1
10
163.030000
20
149.481000
11
163.030000
21
146.532000
0
LINE
8
喇뒨쏛 1
10
163.030000
20
146.532000
11
160.973000
21
146.532000
0
LINE
8
喇뒨쏛 1
10
160.973000
20
146.532000
11
160.973000
21
132.632000
0
LINE
8
喇뒨쏛 1
10
160.973000
20
132.632000
11
163.030000
21
132.632000
0
LINE
8
喇뒨쏛 1
10
163.030000
20
132.632000
11
163.030000
21
129.823000
0
LINE
8
喇뒨쏛 1
10
163.030000
20
129.823000
11
167.114000
21
129.823000
0
LINE
8
喇뒨쏛 1
10
167.114000
20
129.823000
11
167.114000
21
132.632000
0
LINE
8
喇뒨쏛 1
10
167.114000
20
132.632000
11
174.142000
21
132.632000
0
LINE
8
喇뒨쏛 1
10
174.142000
20
132.632000
11
174.142000
21
129.823000
0
LINE
8
喇뒨쏛 1
10
174.142000
20
129.823000
11
178.227000
21
129.823000
0
LINE
8
喇뒨쏛 1
10
178.227000
20
129.823000
11
178.227000
21
132.632000
0
LINE
8
喇뒨쏛 1
10
178.227000
20
132.632000
11
180.873000
21
132.632000
0
LINE
8
喇뒨쏛 1
10
180.873000
20
132.632000
11
180.873000
21
146.532000
0
LINE
8
喇뒨쏛 1
10
180.873000
20
146.532000
11
178.227000
21
146.532000
0
LINE
8
喇뒨쏛 1
10
178.227000
20
146.532000
11
178.227000
21
149.481000
0
LINE
8
喇뒨쏛 1
10
178.227000
20
149.481000
11
174.142000
21
149.481000
0
LINE
8
喇뒨쏛 1
10
174.142000
20
149.481000
11
174.142000
21
146.532000
0
LINE
8
喇뒨쏛 1
10
174.142000
20
146.532000
11
167.114000
21
146.532000
0
LINE
8
喇뒨쏛 1
10
167.114000
20
146.532000
11
167.114000
21
149.481000
0
LINE
8
喇뒨쏛 1
10
167.114000
20
149.481000
11
163.030000
21
149.481000
0
LINE
8
喇뒨쏛 1
10
163.962000
20
120.927000
11
193.543700
21
103.848000
0
LINE
8
喇뒨쏛 1
10
193.543700
20
103.848000
11
203.475240
21
121.049900
0
LINE
8
喇뒨쏛 1
10
203.475240
20
121.049900
11
163.962000
21
120.927000
0
LINE
8
喇뒨쏛 1
10
160.973000
20
201.069000
11
160.973000
21
151.169000
0
LINE
8
喇뒨쏛 1
10
160.973000
20
151.169000
11
220.873000
21
151.169000
0
LINE
8
喇뒨쏛 1
10
220.873000
20
151.169000
11
220.873000
21
201.069000
0
LINE
8
喇뒨쏛 1
10
220.873000
20
201.069000
11
160.973000
21
201.069000
0
LINE
8
喇뒨쏛 1
10
160.973000
20
201.069000
11
160.973000
21
201.069000
0
LINE
8
喇뒨쏛 1
10
196.124000
20
197.797000
11
211.368000
21
185.006000
0
LINE
8
喇뒨쏛 1
10
211.368000
20
185.006000
11
185.721000
21
154.441000
0
LINE
8
喇뒨쏛 1
10
185.721000
20
154.441000
11
170.477000
21
167.232000
0
LINE
8
喇뒨쏛 1
10
170.477000
20
167.232000
11
196.124000
21
197.797000
0
LINE
8
喇뒨쏛 1
10
196.124000
20
197.797000
11
196.124000
21
197.797000
0
LINE
8
喇뒨쏛 1
10
165.978000
20
196.697000
11
166.542405
21
196.583052
0
LINE
8
喇뒨쏛 1
10
166.542405
20
196.583052
11
167.003305
21
196.272305
0
LINE
8
喇뒨쏛 1
10
167.003305
20
196.272305
11
167.314052
21
195.811405
0
LINE
8
喇뒨쏛 1
10
167.314052
20
195.811405
11
167.428000
21
195.247000
0
LINE
8
喇뒨쏛 1
10
167.428000
20
195.247000
11
167.314052
21
194.682595
0
LINE
8
喇뒨쏛 1
10
167.314052
20
194.682595
11
167.003305
21
194.221695
0
LINE
8
喇뒨쏛 1
10
167.003305
20
194.221695
11
166.542405
21
193.910948
0
LINE
8
喇뒨쏛 1
10
166.542405
20
193.910948
11
165.978000
21
193.797000
0
LINE
8
喇뒨쏛 1
10
165.978000
20
193.797000
11
165.423109
21
193.907375
0
LINE
8
喇뒨쏛 1
10
165.423109
20
193.907375
11
164.952695
21
194.221695
0
LINE
8
喇뒨쏛 1
10
164.952695
20
194.221695
11
164.638375
21
194.692109
0
LINE
8
喇뒨쏛 1
10
164.638375
20
194.692109
11
164.528000
21
195.247000
0
LINE
8
喇뒨쏛 1
10
164.528000
20
195.247000
11
164.638375
21
195.801891
0
LINE
8
喇뒨쏛 1
10
164.638375
20
195.801891
11
164.952695
21
196.272305
0
LINE
8
喇뒨쏛 1
10
164.952695
20
196.272305
11
165.423109
21
196.586625
0
LINE
8
喇뒨쏛 1
10
165.423109
20
196.586625
11
165.978000
21
196.697000
0
LINE
8
喇뒨쏛 1
10
165.978000
20
196.697000
11
165.978000
21
196.697000
0
LINE
8
喇뒨쏛 1
10
216.248000
20
196.697000
11
216.802891
21
196.586625
0
LINE
8
喇뒨쏛 1
10
216.802891
20
196.586625
11
217.273305
21
196.272305
0
LINE
8
喇뒨쏛 1
10
217.273305
20
196.272305
11
217.587625
21
195.801891
0
LINE
8
喇뒨쏛 1
10
217.587625
20
195.801891
11
217.698000
21
195.247000
0
LINE
8
喇뒨쏛 1
10
217.698000
20
195.247000
11
217.587625
21
194.692109
0
LINE
8
喇뒨쏛 1
10
217.587625
20
194.692109
11
217.273305
21
194.221695
0
LINE
8
喇뒨쏛 1
10
217.273305
20
194.221695
11
216.802891
21
193.907375
0
LINE
8
喇뒨쏛 1
10
216.802891
20
193.907375
11
216.248000
21
193.797000
0
LINE
8
喇뒨쏛 1
10
216.248000
20
193.797000
11
215.693109
21
193.907375
0
LINE
8
喇뒨쏛 1
10
215.693109
20
193.907375
11
215.222695
21
194.221695
0
LINE
8
喇뒨쏛 1
10
215.222695
20
194.221695
11
214.908375
21
194.692109
0
LINE
8
喇뒨쏛 1
10
214.908375
20
194.692109
11
214.798000
21
195.247000
0
LINE
8
喇뒨쏛 1
10
214.798000
20
195.247000
11
214.908375
21
195.801891
0
LINE
8
喇뒨쏛 1
10
214.908375
20
195.801891
11
215.222695
21
196.272305
0
LINE
8
喇뒨쏛 1
10
215.222695
20
196.272305
11
215.693109
21
196.586625
0
LINE
8
喇뒨쏛 1
10
215.693109
20
196.586625
11
216.248000
21
196.697000
0
LINE
8
喇뒨쏛 1
10
216.248000
20
196.697000
11
216.248000
21
196.697000
0
LINE
8
喇뒨쏛 1
10
165.978000
20
158.068000
11
166.542405
21
157.954052
0
LINE
8
喇뒨쏛 1
10
166.542405
20
157.954052
11
167.003305
21
157.643305
0
LINE
8
喇뒨쏛 1
10
167.003305
20
157.643305
11
167.314052
21
157.182405
0
LINE
8
喇뒨쏛 1
10
167.314052
20
157.182405
11
167.428000
21
156.618000
0
LINE
8
喇뒨쏛 1
10
167.428000
20
156.618000
11
167.314052
21
156.053595
0
LINE
8
喇뒨쏛 1
10
167.314052
20
156.053595
11
167.003305
21
155.592695
0
LINE
8
喇뒨쏛 1
10
167.003305
20
155.592695
11
166.542405
21
155.281948
0
LINE
8
喇뒨쏛 1
10
166.542405
20
155.281948
11
165.978000
21
155.168000
0
LINE
8
喇뒨쏛 1
10
165.978000
20
155.168000
11
165.423109
21
155.278375
0
LINE
8
喇뒨쏛 1
10
165.423109
20
155.278375
11
164.952695
21
155.592695
0
LINE
8
喇뒨쏛 1
10
164.952695
20
155.592695
11
164.638375
21
156.063109
0
LINE
8
喇뒨쏛 1
10
164.638375
20
156.063109
11
164.528000
21
156.618000
0
LINE
8
喇뒨쏛 1
10
164.528000
20
156.618000
11
164.638375
21
157.172891
0
LINE
8
喇뒨쏛 1
10
164.638375
20
157.172891
11
164.952695
21
157.643305
0
LINE
8
喇뒨쏛 1
10
164.952695
20
157.643305
11
165.423109
21
157.957625
0
LINE
8
喇뒨쏛 1
10
165.423109
20
157.957625
11
165.978000
21
158.068000
0
LINE
8
喇뒨쏛 1
10
165.978000
20
158.068000
11
165.978000
21
158.068000
0
LINE
8
喇뒨쏛 1
10
216.248000
20
158.068000
11
216.802891
21
157.957625
0
LINE
8
喇뒨쏛 1
10
216.802891
20
157.957625
11
217.273305
21
157.643305
0
LINE
8
喇뒨쏛 1
10
217.273305
20
157.643305
11
217.587625
21
157.172891
0
LINE
8
喇뒨쏛 1
10
217.587625
20
157.172891
11
217.698000
21
156.618000
0
LINE
8
喇뒨쏛 1
10
217.698000
20
156.618000
11
217.587625
21
156.063109
0
LINE
8
喇뒨쏛 1
10
217.587625
20
156.063109
11
217.273305
21
155.592695
0
LINE
8
喇뒨쏛 1
10
217.273305
20
155.592695
11
216.802891
21
155.278375
0
LINE
8
喇뒨쏛 1
10
216.802891
20
155.278375
11
216.248000
21
155.168000
0
LINE
8
喇뒨쏛 1
10
216.248000
20
155.168000
11
215.693109
21
155.278375
0
LINE
8
喇뒨쏛 1
10
215.693109
20
155.278375
11
215.222695
21
155.592695
0
LINE
8
喇뒨쏛 1
10
215.222695
20
155.592695
11
214.908375
21
156.063109
0
LINE
8
喇뒨쏛 1
10
214.908375
20
156.063109
11
214.798000
21
156.618000
0
LINE
8
喇뒨쏛 1
10
214.798000
20
156.618000
11
214.908375
21
157.172891
0
LINE
8
喇뒨쏛 1
10
214.908375
20
157.172891
11
215.222695
21
157.643305
0
LINE
8
喇뒨쏛 1
10
215.222695
20
157.643305
11
215.693109
21
157.957625
0
LINE
8
喇뒨쏛 1
10
215.693109
20
157.957625
11
216.248000
21
158.068000
0
LINE
8
喇뒨쏛 1
10
216.248000
20
158.068000
11
216.248000
21
158.068000
 0 
ENDSEC
 0 
EOF