<?xml version="1.0" encoding="UTF-8" standalone="no"?>
<!-- Created with Inkscape (http://www.inkscape.org/) -->

<svg
   width="297mm"
   height="210mm"
   viewBox="0 0 297 210"
   version="1.1"
   id="svg5"
   xml:space="preserve"
   inkscape:version="1.2.2 (732a01da63, 2022-12-09)"
   sodipodi:docname="投幣機外框2.svg"
   xmlns:inkscape="http://www.inkscape.org/namespaces/inkscape"
   xmlns:sodipodi="http://sodipodi.sourceforge.net/DTD/sodipodi-0.dtd"
   xmlns="http://www.w3.org/2000/svg"
   xmlns:svg="http://www.w3.org/2000/svg"><sodipodi:namedview
     id="namedview7"
     pagecolor="#ffffff"
     bordercolor="#000000"
     borderopacity="0.25"
     inkscape:showpageshadow="2"
     inkscape:pageopacity="0.0"
     inkscape:pagecheckerboard="0"
     inkscape:deskcolor="#d1d1d1"
     inkscape:document-units="mm"
     showgrid="false"
     inkscape:zoom="1.0305625"
     inkscape:cx="386.19686"
     inkscape:cy="155.25502"
     inkscape:window-width="1024"
     inkscape:window-height="705"
     inkscape:window-x="-8"
     inkscape:window-y="-8"
     inkscape:window-maximized="1"
     inkscape:current-layer="layer1"
     showguides="true" /><defs
     id="defs2" /><g
     inkscape:label="圖層 1"
     inkscape:groupmode="layer"
     id="layer1"><path
       id="path30197-9"
       style="fill:none;stroke:#000000;stroke-width:0.0999999;stroke-dasharray:none"
       inkscape:label="Triangle"
       d="m -143.82701,100.14829 -2.91816,1.68465 1.42988,2.47685 -3.53725,2.04226 -1.42988,-2.47634 -7.00113,4.04213 1.42937,2.47634 -3.53725,2.04225 -1.42989,-2.47633 -2.913,1.68206 19.76469,34.23409 z" /><path
       id="rect17330-68"
       style="fill:none;stroke:#000000;stroke-width:0.1;stroke-dasharray:none"
       d="m 199.11066,98.971869 v 3.000331 h -9.20099 v 13.89993 h 9.20099 v 2.75849 h 7.90029 v -2.75849 h 17.32297 v 2.5616 h 7.89978 v -2.5616 h 17.32297 v 2.5616 h 7.9003 v -2.5616 h 17.32297 v 2.5616 h 7.89978 v -2.5616 h 7.12979 V 101.9722 h -7.12979 v -3.000331 h -7.89978 v 3.000331 h -17.32297 v -3.000331 h -7.9003 V 101.9722 H 232.2337 v -3.000331 h -7.89978 v 3.000331 h -17.32297 v -3.000331 z m 65.26475,4.879291 h 4.48448 v 9.90017 h -4.48448 v -0.99994 h -48.41514 v -7.89977 h 48.41514 z" /><path
       id="rect32611"
       style="fill:none;stroke:#000000;stroke-width:0.0999996;stroke-dasharray:none"
       d="M 212.64167,21.717567 V 81.420383 H 280.8928 V 21.717567 Z m 5.00538,5.708179 a 1.45,1.45 0 0 1 1.45004,1.45004 1.45,1.45 0 0 1 -1.45004,1.450041 1.45,1.45 0 0 1 -1.45004,-1.450041 1.45,1.45 0 0 1 1.45004,-1.45004 z m 56.6198,0 a 1.45,1.45 0 0 1 1.45004,1.45004 1.45,1.45 0 0 1 -1.45004,1.450041 1.45,1.45 0 0 1 -1.45004,-1.450041 1.45,1.45 0 0 1 1.45004,-1.45004 z M 251.91627,29.95324 267.16082,42.744707 241.6182,73.18471 226.37365,60.393242 Z m -34.26922,44.568339 a 1.45,1.45 0 0 1 1.45004,1.450041 1.45,1.45 0 0 1 -1.45004,1.45004 1.45,1.45 0 0 1 -1.45004,-1.45004 1.45,1.45 0 0 1 1.45004,-1.450041 z m 56.6198,0 a 1.45,1.45 0 0 1 1.45004,1.450041 1.45,1.45 0 0 1 -1.45004,1.45004 1.45,1.45 0 0 1 -1.45004,-1.45004 1.45,1.45 0 0 1 1.45004,-1.450041 z" /><path
       id="path1125"
       style="fill:none;stroke:#000000;stroke-width:0.0999996;stroke-dasharray:none"
       d="m 185.68666,40.746409 -5.1e-4,39.737109 19.90007,-5.17e-4 5.2e-4,-39.736592 z m 3.17449,3.418396 h 2.90008 v 32.8998 h -2.90008 z" /><path
       id="rect17330"
       style="fill:none;stroke:#000000;stroke-width:0.1;stroke-dasharray:none"
       d="m 199.06053,127.1572 v 3.00034 h -9.20099 v 13.89992 h 9.20099 v 2.75849 h 7.9003 v -2.75849 h 17.32297 v 2.5616 h 7.89977 v -2.5616 h 17.32295 v 2.5616 h 7.90029 v -2.5616 h 17.32298 v 2.5616 h 7.89977 v -2.5616 h 7.1298 v -13.89992 h -7.1298 v -3.00034 h -7.89977 v 3.00034 h -17.32298 v -3.00034 h -7.90029 v 3.00034 h -17.32295 v -3.00034 h -7.89977 v 3.00034 h -17.32297 v -3.00034 z" /><text
       xml:space="preserve"
       style="font-size:12.7px;fill:none;stroke:#ff0000;stroke-width:0.1"
       x="104.00388"
       y="67.662422"
       id="text966"><tspan
         sodipodi:role="line"
         id="tspan964"
         style="font-size:12.7px;stroke:#ff0000;stroke-width:0.1"
         x="104.00388"
         y="67.662422">投幣機</tspan></text><rect
       style="fill:#ff7f2a;stroke:#000000;stroke-width:0.1"
       id="rect930"
       width="99.900002"
       height="45.900002"
       x="-143.82719"
       y="100.14854" /><rect
       style="fill:#ffffff;stroke:#000000;stroke-width:0.1"
       id="rect930-8"
       width="99.900002"
       height="33.900002"
       x="-143.82719"
       y="106.14854" /><g
       id="g1054"
       transform="translate(-175.48244,12.949997)"><path
         style="font-size:12px;fill:#ffffff;fill-rule:evenodd;stroke:#000000;stroke-width:0.0999995;stroke-linecap:round"
         d="m 116.30408,127.19854 h 7.89977 v 2.90008 h -7.89977 z"
         id="path872-7" /><path
         style="font-size:12px;fill:#ffffff;fill-rule:evenodd;stroke:#000000;stroke-width:0.0999995;stroke-linecap:round"
         d="m 91.080807,127.19854 h 7.900291 v 2.90008 h -7.900291 z"
         id="path870-1" /><path
         style="font-size:12px;fill:#ffffff;fill-rule:evenodd;stroke:#000000;stroke-width:0.0999995;stroke-linecap:round"
         d="m 65.858047,127.19854 h 7.89978 v 2.90008 h -7.89978 z"
         id="path868-2" /><path
         style="font-size:12px;fill:#ffffff;fill-rule:evenodd;stroke:#000000;stroke-width:0.0999995;stroke-linecap:round"
         d="m 40.634783,127.19854 h 7.900294 v 3.00033 h -7.900294 z"
         id="path866-0" /></g><g
       id="g1064"
       transform="translate(-175.48244,-24.091687)"><path
         style="font-size:12px;fill:#ffffff;fill-rule:evenodd;stroke:#000000;stroke-width:0.0999995;stroke-linecap:round"
         d="m 116.30408,127.19854 h 7.89977 v 2.90008 h -7.89977 z"
         id="path1056" /><path
         style="font-size:12px;fill:#ffffff;fill-rule:evenodd;stroke:#000000;stroke-width:0.0999995;stroke-linecap:round"
         d="m 91.080807,127.19854 h 7.900291 v 2.90008 h -7.900291 z"
         id="path1058" /><path
         style="font-size:12px;fill:#ffffff;fill-rule:evenodd;stroke:#000000;stroke-width:0.0999995;stroke-linecap:round"
         d="m 65.858047,127.19854 h 7.89978 v 2.90008 h -7.89978 z"
         id="path1060" /><path
         style="font-size:12px;fill:#ffffff;fill-rule:evenodd;stroke:#000000;stroke-width:0.0999995;stroke-linecap:round"
         d="m 40.634783,127.19854 h 7.900294 v 3.00033 h -7.900294 z"
         id="path1062" /></g><rect
       style="fill:#ffffff;stroke:#000000;stroke-width:0.0999996"
       id="rect972"
       width="3.1000004"
       height="2.9000001"
       x="77.34832"
       y="124.05753"
       transform="scale(-1,1)" /><rect
       style="fill:#ffffff;stroke:#000000;stroke-width:0.0999992"
       id="rect972-5"
       width="2.9000003"
       height="4.3000002"
       x="131.94832"
       y="130.15753"
       transform="scale(-1,1)" /><rect
       style="fill:#ffffff;stroke:#000000;stroke-width:0.0999992"
       id="rect972-5-4"
       width="2.9000003"
       height="4.3000002"
       x="131.99832"
       y="116.50753"
       transform="scale(-1,1)" /><rect
       style="fill:#00ff00;stroke:none;stroke-width:0.0999997"
       id="rect972-3"
       width="9"
       height="8.6000004"
       x="134.89832"
       y="134.50754"
       transform="scale(-1,1)" /><rect
       style="fill:#808000;stroke:none;stroke-width:0.0999997"
       id="rect972-3-0"
       width="46.400002"
       height="15"
       x="97.498314"
       y="128.10753"
       transform="scale(-1,1)" /><rect
       style="fill:#008080;stroke:none;stroke-width:0.0999998"
       id="rect972-3-4"
       width="9"
       height="18"
       x="134.89832"
       y="116.50753"
       transform="scale(-1,1)" /><rect
       style="fill:#ffffff;stroke:#000000;stroke-width:0.0999992"
       id="rect1088"
       width="2.9000003"
       height="4.3000002"
       x="88.55661"
       y="130.15753"
       transform="scale(-1,1)" /><rect
       style="fill:#ffffff;stroke:#000000;stroke-width:0.0999992"
       id="rect1090"
       width="2.9000003"
       height="4.3000002"
       x="88.606613"
       y="116.50753"
       transform="scale(-1,1)" /><rect
       style="fill:#ffffff;stroke:#000000;stroke-width:0.0999993"
       id="rect1090-3"
       width="4.5000005"
       height="15.900001"
       x="92.998314"
       y="112.20753"
       transform="scale(-1,1)" /><rect
       style="fill:#ffffff;stroke:#000000;stroke-width:0.0999992"
       id="rect1092"
       width="2.9000003"
       height="4.3000002"
       x="103.37329"
       y="130.15753"
       transform="scale(-1,1)" /><rect
       style="fill:#ffffff;stroke:#000000;stroke-width:0.0999992"
       id="rect1094"
       width="2.9000003"
       height="4.3000002"
       x="103.42329"
       y="116.50753"
       transform="scale(-1,1)" /><rect
       style="fill:#ffffff;stroke:#000000;stroke-width:0.0999992"
       id="rect1096"
       width="2.9000003"
       height="4.3000002"
       x="117.13164"
       y="130.15753"
       transform="scale(-1,1)" /><rect
       style="fill:#ffffff;stroke:#000000;stroke-width:0.0999992"
       id="rect1098"
       width="2.9000003"
       height="4.3000002"
       x="117.18164"
       y="116.50753"
       transform="scale(-1,1)" /><path
       id="rect452"
       style="fill:none;stroke:#000000;stroke-width:0.0999996"
       d="m 178.19481,113.30792 v 2.94969 13.89993 2.80862 h -4.08812 v -2.80862 h -8.08272 v 2.80862 h -4.08812 v -2.80862 h -3.52588 v -13.89993 h 3.52588 v -2.94969 h 4.08812 v 2.94969 h 8.08272 v -2.94969 z" /><path
       id="path1215"
       style="fill:none;stroke:#000000;stroke-width:0.0999999;stroke-dasharray:none"
       inkscape:label="Triangle"
       d="M 47.844108 99.816646 L 47.844108 99.892611 L 45.057198 101.5013 L 46.487085 103.97815 L 42.949833 106.0204 L 41.519946 103.54407 L 34.518823 107.5862 L 35.948193 110.06253 L 32.410942 112.10479 L 30.981055 109.62845 L 28.068054 111.31052 L 47.832739 145.5446 C 65.294572 143.61361 118.93421 145.71669 147.74395 145.71669 L 147.74395 99.816646 L 47.975366 99.816646 L 47.844108 99.816646 z M 56.823922 102.77512 L 64.724215 102.77512 L 64.724215 105.77546 L 56.823922 105.77546 L 56.823922 102.77512 z M 82.047188 102.77512 L 89.946965 102.77512 L 89.946965 105.6752 L 82.047188 105.6752 L 82.047188 102.77512 z M 107.26994 102.77512 L 115.17023 102.77512 L 115.17023 105.6752 L 107.26994 105.6752 L 107.26994 102.77512 z M 132.4932 102.77512 L 140.39298 102.77512 L 140.39298 105.6752 L 132.4932 105.6752 L 132.4932 102.77512 z M 56.773279 116.17585 L 59.67336 116.17585 L 59.67336 120.47585 L 56.773279 120.47585 L 56.773279 116.17585 z M 71.589945 116.17585 L 74.490027 116.17585 L 74.490027 120.47585 L 71.589945 120.47585 L 71.589945 116.17585 z M 85.348279 116.17585 L 88.24836 116.17585 L 88.24836 120.47585 L 85.348279 120.47585 L 85.348279 116.17585 z M 100.16495 116.17585 L 103.06503 116.17585 L 103.06503 120.47585 L 100.16495 120.47585 L 100.16495 116.17585 z M 111.22319 123.72578 L 114.32325 123.72578 L 114.32325 126.62586 L 111.22319 126.62586 L 111.22319 123.72578 z M 56.822888 129.82567 L 59.72297 129.82567 L 59.72297 134.12566 L 56.822888 134.12566 L 56.822888 129.82567 z M 71.640072 129.82567 L 74.539636 129.82567 L 74.539636 134.12566 L 71.640072 134.12566 L 71.640072 129.82567 z M 85.398405 129.82567 L 88.298486 129.82567 L 88.298486 134.12566 L 85.398405 134.12566 L 85.398405 129.82567 z M 100.21507 129.82567 L 103.11515 129.82567 L 103.11515 134.12566 L 100.21507 134.12566 L 100.21507 129.82567 z M 56.823922 139.81679 L 64.724215 139.81679 L 64.724215 142.81712 L 56.823922 142.81712 L 56.823922 139.81679 z M 82.047188 139.81679 L 89.946965 139.81679 L 89.946965 142.71687 L 82.047188 142.71687 L 82.047188 139.81679 z M 107.26994 139.81679 L 115.17023 139.81679 L 115.17023 142.71687 L 107.26994 142.71687 L 107.26994 139.81679 z M 132.4932 139.81679 L 140.39298 139.81679 L 140.39298 142.71687 L 132.4932 142.71687 L 132.4932 139.81679 z " /><path
       id="path1394"
       style="fill:none;stroke:#000000;stroke-width:0.0999999;stroke-dasharray:none"
       inkscape:label="Triangle"
       d="M 47.844108 41.079146 L 47.844108 41.155111 L 45.057198 42.763798 L 46.487085 45.240649 L 42.949833 47.282902 L 41.519946 44.806567 L 34.518823 48.848698 L 35.948193 51.325033 L 32.410942 53.367285 L 30.981055 50.890951 L 28.068054 52.573018 L 47.832739 86.807104 C 65.294708 84.876038 118.93397 86.979187 147.74395 86.979187 L 147.74395 41.079146 L 47.975366 41.079146 L 47.844108 41.079146 z M 56.823922 44.037622 L 64.724215 44.037622 L 64.724215 47.037956 L 56.823922 47.037956 L 56.823922 44.037622 z M 82.047188 44.037622 L 89.946965 44.037622 L 89.946965 46.937703 L 82.047188 46.937703 L 82.047188 44.037622 z M 107.26994 44.037622 L 115.17023 44.037622 L 115.17023 46.937703 L 107.26994 46.937703 L 107.26994 44.037622 z M 132.4932 44.037622 L 140.39298 44.037622 L 140.39298 46.937703 L 132.4932 46.937703 L 132.4932 44.037622 z M 94.173063 53.138359 L 98.673047 53.138359 L 98.673047 69.038163 L 94.173063 69.038163 L 94.173063 53.138359 z M 56.823922 81.079289 L 64.724215 81.079289 L 64.724215 84.079622 L 56.823922 84.079622 L 56.823922 81.079289 z M 82.047188 81.079289 L 89.946965 81.079289 L 89.946965 83.97937 L 82.047188 83.97937 L 82.047188 81.079289 z M 107.26994 81.079289 L 115.17023 81.079289 L 115.17023 83.97937 L 107.26994 83.97937 L 107.26994 81.079289 z M 132.4932 81.079289 L 140.39298 81.079289 L 140.39298 83.97937 L 132.4932 83.97937 L 132.4932 81.079289 z " /></g></svg>
