<?xml version="1.0" encoding="UTF-8" standalone="no"?>
<!-- Created with Inkscape (http://www.inkscape.org/) -->

<svg
   width="297mm"
   height="210mm"
   viewBox="0 0 297 210"
   version="1.1"
   id="svg5"
   xml:space="preserve"
   inkscape:version="1.2.2 (732a01da63, 2022-12-09)"
   sodipodi:docname="投幣機外框2.svg"
   xmlns:inkscape="http://www.inkscape.org/namespaces/inkscape"
   xmlns:sodipodi="http://sodipodi.sourceforge.net/DTD/sodipodi-0.dtd"
   xmlns="http://www.w3.org/2000/svg"
   xmlns:svg="http://www.w3.org/2000/svg"><sodipodi:namedview
     id="namedview7"
     pagecolor="#ffffff"
     bordercolor="#000000"
     borderopacity="0.25"
     inkscape:showpageshadow="2"
     inkscape:pageopacity="0.0"
     inkscape:pagecheckerboard="0"
     inkscape:deskcolor="#d1d1d1"
     inkscape:document-units="mm"
     showgrid="false"
     inkscape:zoom="1.9881548"
     inkscape:cx="221.31074"
     inkscape:cy="161.95922"
     inkscape:window-width="1024"
     inkscape:window-height="705"
     inkscape:window-x="-8"
     inkscape:window-y="-8"
     inkscape:window-maximized="1"
     inkscape:current-layer="layer1"
     showguides="true" /><defs
     id="defs2" /><g
     inkscape:label="圖層 1"
     inkscape:groupmode="layer"
     id="layer1"><path
       id="path30197-9"
       style="fill:none;stroke:#000000;stroke-width:0.0999999;stroke-dasharray:none"
       inkscape:label="Triangle"
       d="m -143.82701,100.14829 -2.91816,1.68465 1.42988,2.47685 -3.53725,2.04226 -1.42988,-2.47634 -7.00113,4.04213 1.42937,2.47634 -3.53725,2.04225 -1.42989,-2.47633 -2.913,1.68206 19.76469,34.23409 z" /><path
       id="rect17330-68"
       style="fill:none;stroke:#000000;stroke-width:0.1;stroke-dasharray:none"
       d="m 475.05198,70.651576 v 3.000331 h -9.20099 v 13.89993 h 9.20099 v 2.75849 h 7.90029 v -2.75849 h 17.32297 v 2.5616 h 7.89978 v -2.5616 h 17.32297 v 2.5616 h 7.9003 v -2.5616 h 17.32297 v 2.5616 h 7.89978 v -2.5616 h 7.12979 v -13.89993 h -7.12979 v -3.000331 h -7.89978 v 3.000331 h -17.32297 v -3.000331 h -7.9003 v 3.000331 h -17.32297 v -3.000331 h -7.89978 v 3.000331 h -17.32297 v -3.000331 z m 65.26475,4.879291 h 4.48448 v 9.90017 h -4.48448 v -0.99994 h -48.41514 v -7.89977 h 48.41514 z" /><path
       id="path1125"
       style="fill:none;stroke:#000000;stroke-width:0.0999996;stroke-dasharray:none"
       d="m 461.62798,12.426116 -5.1e-4,39.737109 19.90007,-5.17e-4 5.2e-4,-39.736592 z m 3.17449,3.418396 h 2.90008 v 32.8998 h -2.90008 z" /><path
       id="rect17330"
       style="fill:none;stroke:#000000;stroke-width:0.1;stroke-dasharray:none"
       d="m 475.00185,98.836907 v 3.000343 h -9.20099 v 13.89992 h 9.20099 v 2.75849 h 7.9003 v -2.75849 h 17.32297 v 2.5616 h 7.89977 v -2.5616 h 17.32295 v 2.5616 h 7.90029 v -2.5616 h 17.32298 v 2.5616 h 7.89977 v -2.5616 h 7.1298 v -13.89992 h -7.1298 v -3.000343 h -7.89977 v 3.000343 h -17.32298 v -3.000343 h -7.90029 v 3.000343 h -17.32295 v -3.000343 h -7.89977 v 3.000343 h -17.32297 v -3.000343 z" /><text
       xml:space="preserve"
       style="font-size:12.7px;fill:none;stroke:#000000;stroke-width:0.1"
       x="379.94519"
       y="39.342129"
       id="text966"><tspan
         sodipodi:role="line"
         id="tspan964"
         style="font-size:12.7px;stroke:#000000;stroke-width:0.1;fill:none"
         x="379.94519"
         y="39.342129">投幣機</tspan></text><rect
       style="fill:#ff7f2a;stroke:#000000;stroke-width:0.1"
       id="rect930"
       width="99.900002"
       height="45.900002"
       x="-143.82719"
       y="100.14854" /><rect
       style="fill:#ffffff;stroke:#000000;stroke-width:0.1"
       id="rect930-8"
       width="99.900002"
       height="33.900002"
       x="-143.82719"
       y="106.14854" /><g
       id="g1054"
       transform="translate(-175.48244,12.949997)"><path
         style="font-size:12px;fill:#ffffff;fill-rule:evenodd;stroke:#000000;stroke-width:0.0999995;stroke-linecap:round"
         d="m 116.30408,127.19854 h 7.89977 v 2.90008 h -7.89977 z"
         id="path872-7" /><path
         style="font-size:12px;fill:#ffffff;fill-rule:evenodd;stroke:#000000;stroke-width:0.0999995;stroke-linecap:round"
         d="m 91.080807,127.19854 h 7.900291 v 2.90008 h -7.900291 z"
         id="path870-1" /><path
         style="font-size:12px;fill:#ffffff;fill-rule:evenodd;stroke:#000000;stroke-width:0.0999995;stroke-linecap:round"
         d="m 65.858047,127.19854 h 7.89978 v 2.90008 h -7.89978 z"
         id="path868-2" /><path
         style="font-size:12px;fill:#ffffff;fill-rule:evenodd;stroke:#000000;stroke-width:0.0999995;stroke-linecap:round"
         d="m 40.634783,127.19854 h 7.900294 v 3.00033 h -7.900294 z"
         id="path866-0" /></g><g
       id="g1064"
       transform="translate(-175.48244,-24.091687)"><path
         style="font-size:12px;fill:#ffffff;fill-rule:evenodd;stroke:#000000;stroke-width:0.0999995;stroke-linecap:round"
         d="m 116.30408,127.19854 h 7.89977 v 2.90008 h -7.89977 z"
         id="path1056" /><path
         style="font-size:12px;fill:#ffffff;fill-rule:evenodd;stroke:#000000;stroke-width:0.0999995;stroke-linecap:round"
         d="m 91.080807,127.19854 h 7.900291 v 2.90008 h -7.900291 z"
         id="path1058" /><path
         style="font-size:12px;fill:#ffffff;fill-rule:evenodd;stroke:#000000;stroke-width:0.0999995;stroke-linecap:round"
         d="m 65.858047,127.19854 h 7.89978 v 2.90008 h -7.89978 z"
         id="path1060" /><path
         style="font-size:12px;fill:#ffffff;fill-rule:evenodd;stroke:#000000;stroke-width:0.0999995;stroke-linecap:round"
         d="m 40.634783,127.19854 h 7.900294 v 3.00033 h -7.900294 z"
         id="path1062" /></g><rect
       style="fill:#ffffff;stroke:#000000;stroke-width:0.0999996"
       id="rect972"
       width="3.1000004"
       height="2.9000001"
       x="77.34832"
       y="124.05753"
       transform="scale(-1,1)" /><rect
       style="fill:#ffffff;stroke:#000000;stroke-width:0.0999992"
       id="rect972-5"
       width="2.9000003"
       height="4.3000002"
       x="131.94832"
       y="130.15753"
       transform="scale(-1,1)" /><rect
       style="fill:#ffffff;stroke:#000000;stroke-width:0.0999992"
       id="rect972-5-4"
       width="2.9000003"
       height="4.3000002"
       x="131.99832"
       y="116.50753"
       transform="scale(-1,1)" /><rect
       style="fill:#00ff00;stroke:none;stroke-width:0.0999997"
       id="rect972-3"
       width="9"
       height="8.6000004"
       x="134.89832"
       y="134.50754"
       transform="scale(-1,1)" /><rect
       style="fill:#808000;stroke:none;stroke-width:0.0999997"
       id="rect972-3-0"
       width="46.400002"
       height="15"
       x="97.498314"
       y="128.10753"
       transform="scale(-1,1)" /><rect
       style="fill:#008080;stroke:none;stroke-width:0.0999998"
       id="rect972-3-4"
       width="9"
       height="18"
       x="134.89832"
       y="116.50753"
       transform="scale(-1,1)" /><rect
       style="fill:#ffffff;stroke:#000000;stroke-width:0.0999992"
       id="rect1088"
       width="2.9000003"
       height="4.3000002"
       x="88.55661"
       y="130.15753"
       transform="scale(-1,1)" /><rect
       style="fill:#ffffff;stroke:#000000;stroke-width:0.0999992"
       id="rect1090"
       width="2.9000003"
       height="4.3000002"
       x="88.606613"
       y="116.50753"
       transform="scale(-1,1)" /><rect
       style="fill:#ffffff;stroke:#000000;stroke-width:0.0999993"
       id="rect1090-3"
       width="4.5000005"
       height="15.900001"
       x="92.998314"
       y="112.20753"
       transform="scale(-1,1)" /><rect
       style="fill:#ffffff;stroke:#000000;stroke-width:0.0999992"
       id="rect1092"
       width="2.9000003"
       height="4.3000002"
       x="103.37329"
       y="130.15753"
       transform="scale(-1,1)" /><rect
       style="fill:#ffffff;stroke:#000000;stroke-width:0.0999992"
       id="rect1094"
       width="2.9000003"
       height="4.3000002"
       x="103.42329"
       y="116.50753"
       transform="scale(-1,1)" /><rect
       style="fill:#ffffff;stroke:#000000;stroke-width:0.0999992"
       id="rect1096"
       width="2.9000003"
       height="4.3000002"
       x="117.13164"
       y="130.15753"
       transform="scale(-1,1)" /><rect
       style="fill:#ffffff;stroke:#000000;stroke-width:0.0999992"
       id="rect1098"
       width="2.9000003"
       height="4.3000002"
       x="117.18164"
       y="116.50753"
       transform="scale(-1,1)" /><path
       id="rect452"
       style="fill:none;stroke:#000000;stroke-width:0.0999996"
       d="m 454.13613,84.987627 v 2.94969 13.899933 2.80862 h -4.08812 v -2.80862 h -8.08272 v 2.80862 h -4.08812 v -2.80862 h -3.52588 V 87.937317 h 3.52588 v -2.94969 h 4.08812 v 2.94969 h 8.08272 v -2.94969 z" /><path
       id="path1215"
       style="fill:none;stroke:#000000;stroke-width:0.0999999;stroke-dasharray:none"
       inkscape:label="Triangle"
       d="m 323.78543,71.496353 v 0.07596 l -2.78691,1.608689 1.42989,2.47685 -3.53726,2.04225 -1.42988,-2.47633 -7.00113,4.04213 1.42937,2.47633 -3.53725,2.04226 -1.42988,-2.47634 -2.91301,1.68207 19.76469,34.234083 c 17.46183,-1.93099 71.10147,0.17209 99.91121,0.17209 V 71.496353 h -99.76858 z m 8.97981,2.958474 h 7.9003 v 3.00034 h -7.9003 z m 25.22327,0 h 7.89978 v 2.90008 h -7.89978 z m 25.22275,0 h 7.90029 v 2.90008 h -7.90029 z m 25.22326,0 h 7.89978 v 2.90008 h -7.89978 z m -75.71992,13.40073 h 2.90008 v 4.3 h -2.90008 z m 14.81667,0 h 2.90008 v 4.3 h -2.90008 z m 13.75833,0 h 2.90008 v 4.3 h -2.90008 z m 14.81667,0 h 2.90008 v 4.3 h -2.90008 z m 11.05824,7.54993 h 3.10006 v 2.90008 h -3.10006 z m -54.4003,6.099893 h 2.90008 v 4.29999 h -2.90008 z m 14.81718,0 h 2.89957 v 4.29999 h -2.89957 z m 13.75834,0 h 2.90008 v 4.29999 h -2.90008 z m 14.81666,0 h 2.90008 v 4.29999 h -2.90008 z m -43.39115,9.99112 h 7.9003 v 3.00033 h -7.9003 z m 25.22327,0 h 7.89978 v 2.90008 h -7.89978 z m 25.22275,0 h 7.90029 v 2.90008 h -7.90029 z m 25.22326,0 h 7.89978 v 2.90008 h -7.89978 z" /><path
       id="path1394"
       style="fill:none;stroke:#000000;stroke-width:0.0999999;stroke-dasharray:none"
       inkscape:label="Triangle"
       d="m 323.78543,12.758853 v 0.07597 l -2.78691,1.608687 1.42989,2.476851 -3.53726,2.042253 -1.42988,-2.476335 -7.00113,4.042131 1.42937,2.476335 -3.53725,2.042252 -1.42988,-2.476334 -2.91301,1.682067 19.76469,34.234086 c 17.46197,-1.931066 71.10123,0.172083 99.91121,0.172083 V 12.758853 h -99.76858 z m 8.97981,2.958476 h 7.9003 v 3.000334 h -7.9003 z m 25.22327,0 h 7.89978 v 2.900081 h -7.89978 z m 25.22275,0 h 7.90029 v 2.900081 h -7.90029 z m 25.22326,0 h 7.89978 v 2.900081 h -7.89978 z m -38.32014,9.100737 h 4.49999 V 40.71787 h -4.49999 z m -37.34914,27.94093 h 7.9003 v 3.000333 h -7.9003 z m 25.22327,0 h 7.89978 v 2.900081 h -7.89978 z m 25.22275,0 h 7.90029 v 2.900081 h -7.90029 z m 25.22326,0 h 7.89978 v 2.900081 h -7.89978 z" /><path
       id="rect251"
       style="fill:none;stroke:#000000;stroke-width:0.0999999;stroke-dasharray:none"
       d="m 45.704698,30.218656 v 1.599902 H 12.704645 v 2.700094 h 33.000053 v 1.599902 h 2.900081 v -1.599902 -2.700094 -1.599902 z" /><path
       id="rect251-1"
       style="fill:none;stroke:#000000;stroke-width:0.0999999;stroke-dasharray:none"
       d="M 11.19635,32.603759 V 31.003857 H 44.196403 V 28.303763 H 11.19635 V 26.703861 H 8.296268 v 1.599902 2.700094 1.599902 z" /><path
       id="rect953"
       style="fill:none;stroke:#000000;stroke-width:0.0999998;stroke-dasharray:none"
       d="m 10.211183,36.262504 v 8.899715 h 13.899928 v -8.899715 z m 5.400188,2.900081 h 3.10007 v 3.099553 h -3.10007 z" /><path
       id="rect1370-1-5"
       style="fill:none;stroke:#000000;stroke-width:0.0999997;stroke-dasharray:none"
       d="m 10.211183,48.042387 v 4.899959 2.999817 h 4.400248 v -2.999817 -3.100069 h 9.10022 v 3.100069 h -5.17e-4 v 2.999817 h 4.400248 v -2.999817 -4.899959 z" /><path
       id="rect1370-1-5-1"
       style="fill:none;stroke:#000000;stroke-width:0.0999997;stroke-dasharray:none"
       d="M 34.169544,58.540696 V 53.640737 50.64092 h -4.400248 v 2.999817 3.100069 h -9.10022 v -3.100069 h 5.17e-4 V 50.64092 h -4.400248 v 2.999817 4.899959 z" /><path
       id="rect1370-1-5-9"
       style="fill:none;stroke:#000000;stroke-width:0.0999997;stroke-dasharray:none"
       d="m 35.843902,46.750852 v 4.899959 2.999817 h 4.400248 v -2.999817 -3.100069 h 9.10022 v 3.100069 h -5.17e-4 v 2.999817 h 4.400248 v -2.999817 -4.899959 z" /><path
       id="rect1370-1-5-1-9"
       style="fill:none;stroke:#000000;stroke-width:0.0999997;stroke-dasharray:none"
       d="m 59.802263,57.249161 v -4.899959 -2.999817 h -4.400248 v 2.999817 3.100069 h -9.10022 v -3.100069 h 5.17e-4 v -2.999817 h -4.400248 v 2.999817 4.899959 z" /><path
       id="rect1566"
       style="fill:none;stroke:#000000;stroke-width:0.1;stroke-dasharray:none"
       d="M 87.729638,9.2908926 V 20.219941 H 32.729354 V 15.219729 H 29.829789 V 17.31986 H 24.92983 v 2.900081 h 4.899959 v 2.900084 h 57.899849 13.829132 z" /><path
       style="fill:none;stroke:#000000;stroke-width:0.1;stroke-dasharray:none"
       d="m 52.03377,28.812784 v 13.82926 h 13.82932 z"
       id="path1616" /><path
       style="fill:none;stroke:#000000;stroke-width:0.1;stroke-dasharray:none"
       d="M 68.01892,41.922407 V 28.093147 H 54.1896 Z"
       id="path1616-9" /><path
       style="fill:none;stroke:#000000;stroke-width:0.1;stroke-dasharray:none"
       d="m 69.890598,28.928669 v 13.82926 h 13.829325 z"
       id="path1616-95" /><path
       style="fill:none;stroke:#000000;stroke-width:0.1;stroke-dasharray:none"
       d="M 85.875743,42.038292 V 28.209032 H 72.046428 Z"
       id="path1616-9-1" /><path
       id="rect1718"
       style="fill:none;stroke:#000000;stroke-width:0.1;stroke-dasharray:none"
       d="M 23.146474,23.842718 V 12.91367 h 55.000264 v 5.000211 h 2.89956 v -2.10013 h 4.89996 V 12.91367 h -4.89996 V 10.013588 H 23.146474 9.3173426 Z" /><path
       id="rect1726"
       style="fill:none;stroke:#000000;stroke-width:0.1;stroke-dasharray:none"
       d="M 14.146591,19.250926 V 21.35054 H 9.2466316 v 2.900078 h 4.8999594 v 2.90008 h 57.899837 v -2.90008 H 17.046156 v -4.999692 z" /><path
       id="path590"
       style="fill:none;stroke:#000000;stroke-width:0.0999996;stroke-dasharray:none"
       d="m 171.56813,9.220182 -68.25113,3.64e-4 -10e-6,59.702379 68.25108,3.7e-4 z m -3.87188,6.254182 a 1.45,1.45 0 0 1 0.3163,0.904334 1.45,1.45 0 0 1 -1.44992,1.450035 1.45,1.45 0 0 1 -1.45004,-1.449922 1.45,1.45 0 0 1 1.44992,-1.450036 1.45,1.45 0 0 1 1.13374,0.545589 z m -19.3946,11.570101 5.84917,6.97078 -2.37479,1.99268 -5.84917,-6.97077 z m 9.53451,20.85172 -15.24468,12.79113 -25.54258,-30.43967 15.24434,-12.791519 z m 9.86039,14.67428 a 1.45,1.45 0 0 1 0.31596,0.90394 1.45,1.45 0 0 1 -1.44992,1.45003 1.45,1.45 0 0 1 -1.45004,-1.44992 1.45,1.45 0 0 1 1.44992,-1.45003 1.45,1.45 0 0 1 1.13408,0.54598 z m -56.6197,-47.095977 a 1.45,1.45 0 0 1 0.31596,0.903935 1.45,1.45 0 0 1 -1.44993,1.450035 1.45,1.45 0 0 1 -1.45003,-1.449922 1.45,1.45 0 0 1 1.44992,-1.450036 1.45,1.45 0 0 1 1.13408,0.545988 z m -4.4e-4,47.096037 a 1.45,1.45 0 0 1 0.31669,0.904 1.45,1.45 0 0 1 -1.45025,1.44965 1.45,1.45 0 0 1 -1.45003,-1.44993 1.45,1.45 0 0 1 1.44991,-1.45003 1.45,1.45 0 0 1 1.13368,0.54631 z" /></g></svg>
